<svg width="220" height="72" viewBox="0 0 220 72" fill="none" xmlns="http://www.w3.org/2000/svg">
  <rect width="220" height="72" rx="14" fill="white"/>
  <g transform="translate(18 12)" stroke="#657198" stroke-width="2.2" stroke-linecap="round" stroke-linejoin="round">
    <path d="M24 2.5v5M24 40.5v5M2.5 24h5M40.5 24h5M8.8 8.8l3.5 3.5M35.7 35.7l3.5 3.5M39.2 8.8l-3.5 3.5M12.3 35.7l-3.5 3.5"/>
    <path d="M43.2 20.2l-4.1-1.1a15.9 15.9 0 0 0-1.4-3.4l2.1-3.7-3.8-3.8-3.7 2.1a15.9 15.9 0 0 0-3.4-1.4l-1.1-4.1h-7.6l-1.1 4.1a15.9 15.9 0 0 0-3.4 1.4L12 8.2 8.2 12l2.1 3.7a15.9 15.9 0 0 0-1.4 3.4l-4.1 1.1v7.6l4.1 1.1a15.9 15.9 0 0 0 1.4 3.4L8.2 36l3.8 3.8 3.7-2.1a15.9 15.9 0 0 0 3.4 1.4l1.1 4.1h7.6l1.1-4.1a15.9 15.9 0 0 0 3.4-1.4l3.7 2.1 3.8-3.8-2.1-3.7a15.9 15.9 0 0 0 1.4-3.4l4.1-1.1v-7.6Z"/>
    <circle cx="24" cy="24" r="12.8" fill="#F8FAFC"/>
    <path d="M24 15.5V24l5.8 3.5"/>
  </g>
  <text x="76" y="42" fill="#1F2937" font-family="Inter, Arial, sans-serif" font-size="25" font-weight="700">Team</text>
  <text x="140" y="42" fill="#374151" font-family="Inter, Arial, sans-serif" font-size="25" font-weight="500">Time</text>
</svg>
